%TF.GenerationSoftware,KiCad,Pcbnew,(6.0.1-0)*%
%TF.CreationDate,2022-02-21T21:03:00-07:00*%
%TF.ProjectId,LED,4c45442e-6b69-4636-9164-5f7063625858,rev?*%
%TF.SameCoordinates,Original*%
%TF.FileFunction,Legend,Top*%
%TF.FilePolarity,Positive*%
%FSLAX46Y46*%
G04 Gerber Fmt 4.6, Leading zero omitted, Abs format (unit mm)*
G04 Created by KiCad (PCBNEW (6.0.1-0)) date 2022-02-21 21:03:00*
%MOMM*%
%LPD*%
G01*
G04 APERTURE LIST*
%ADD10C,0.100000*%
%ADD11C,0.150000*%
%ADD12C,0.120000*%
G04 APERTURE END LIST*
D10*
X158178571Y-70110000D02*
X158107142Y-70074285D01*
X158000000Y-70074285D01*
X157892857Y-70110000D01*
X157821428Y-70181428D01*
X157785714Y-70252857D01*
X157750000Y-70395714D01*
X157750000Y-70502857D01*
X157785714Y-70645714D01*
X157821428Y-70717142D01*
X157892857Y-70788571D01*
X158000000Y-70824285D01*
X158071428Y-70824285D01*
X158178571Y-70788571D01*
X158214285Y-70752857D01*
X158214285Y-70502857D01*
X158071428Y-70502857D01*
X158535714Y-70824285D02*
X158535714Y-70074285D01*
X158964285Y-70824285D01*
X158964285Y-70074285D01*
X159321428Y-70824285D02*
X159321428Y-70074285D01*
X159500000Y-70074285D01*
X159607142Y-70110000D01*
X159678571Y-70181428D01*
X159714285Y-70252857D01*
X159750000Y-70395714D01*
X159750000Y-70502857D01*
X159714285Y-70645714D01*
X159678571Y-70717142D01*
X159607142Y-70788571D01*
X159500000Y-70824285D01*
X159321428Y-70824285D01*
X148981000Y-67256428D02*
X149088142Y-67292142D01*
X149123857Y-67327857D01*
X149159571Y-67399285D01*
X149159571Y-67506428D01*
X149123857Y-67577857D01*
X149088142Y-67613571D01*
X149016714Y-67649285D01*
X148731000Y-67649285D01*
X148731000Y-66899285D01*
X148981000Y-66899285D01*
X149052428Y-66935000D01*
X149088142Y-66970714D01*
X149123857Y-67042142D01*
X149123857Y-67113571D01*
X149088142Y-67185000D01*
X149052428Y-67220714D01*
X148981000Y-67256428D01*
X148731000Y-67256428D01*
X149445285Y-67613571D02*
X149552428Y-67649285D01*
X149731000Y-67649285D01*
X149802428Y-67613571D01*
X149838142Y-67577857D01*
X149873857Y-67506428D01*
X149873857Y-67435000D01*
X149838142Y-67363571D01*
X149802428Y-67327857D01*
X149731000Y-67292142D01*
X149588142Y-67256428D01*
X149516714Y-67220714D01*
X149481000Y-67185000D01*
X149445285Y-67113571D01*
X149445285Y-67042142D01*
X149481000Y-66970714D01*
X149516714Y-66935000D01*
X149588142Y-66899285D01*
X149766714Y-66899285D01*
X149873857Y-66935000D01*
X150338142Y-67292142D02*
X150338142Y-67649285D01*
X150088142Y-66899285D02*
X150338142Y-67292142D01*
X150588142Y-66899285D01*
X157803571Y-64474285D02*
X157446428Y-64474285D01*
X157446428Y-63724285D01*
X158053571Y-64081428D02*
X158303571Y-64081428D01*
X158410714Y-64474285D02*
X158053571Y-64474285D01*
X158053571Y-63724285D01*
X158410714Y-63724285D01*
X158732142Y-64474285D02*
X158732142Y-63724285D01*
X158910714Y-63724285D01*
X159017857Y-63760000D01*
X159089285Y-63831428D01*
X159125000Y-63902857D01*
X159160714Y-64045714D01*
X159160714Y-64152857D01*
X159125000Y-64295714D01*
X159089285Y-64367142D01*
X159017857Y-64438571D01*
X158910714Y-64474285D01*
X158732142Y-64474285D01*
X159482142Y-64188571D02*
X160053571Y-64188571D01*
X159767857Y-64474285D02*
X159767857Y-63902857D01*
X146748571Y-71380000D02*
X146677142Y-71344285D01*
X146570000Y-71344285D01*
X146462857Y-71380000D01*
X146391428Y-71451428D01*
X146355714Y-71522857D01*
X146320000Y-71665714D01*
X146320000Y-71772857D01*
X146355714Y-71915714D01*
X146391428Y-71987142D01*
X146462857Y-72058571D01*
X146570000Y-72094285D01*
X146641428Y-72094285D01*
X146748571Y-72058571D01*
X146784285Y-72022857D01*
X146784285Y-71772857D01*
X146641428Y-71772857D01*
X147105714Y-72094285D02*
X147105714Y-71344285D01*
X147534285Y-72094285D01*
X147534285Y-71344285D01*
X147891428Y-72094285D02*
X147891428Y-71344285D01*
X148070000Y-71344285D01*
X148177142Y-71380000D01*
X148248571Y-71451428D01*
X148284285Y-71522857D01*
X148320000Y-71665714D01*
X148320000Y-71772857D01*
X148284285Y-71915714D01*
X148248571Y-71987142D01*
X148177142Y-72058571D01*
X148070000Y-72094285D01*
X147891428Y-72094285D01*
X145927142Y-62454285D02*
X146355714Y-62454285D01*
X146141428Y-63204285D02*
X146141428Y-62454285D01*
X146605714Y-63204285D02*
X146605714Y-62454285D01*
X146891428Y-62454285D01*
X146962857Y-62490000D01*
X146998571Y-62525714D01*
X147034285Y-62597142D01*
X147034285Y-62704285D01*
X146998571Y-62775714D01*
X146962857Y-62811428D01*
X146891428Y-62847142D01*
X146605714Y-62847142D01*
X147284285Y-62454285D02*
X147462857Y-63204285D01*
X147605714Y-62668571D01*
X147748571Y-63204285D01*
X147927142Y-62454285D01*
X148641428Y-63204285D02*
X148391428Y-62847142D01*
X148212857Y-63204285D02*
X148212857Y-62454285D01*
X148498571Y-62454285D01*
X148570000Y-62490000D01*
X148605714Y-62525714D01*
X148641428Y-62597142D01*
X148641428Y-62704285D01*
X148605714Y-62775714D01*
X148570000Y-62811428D01*
X148498571Y-62847142D01*
X148212857Y-62847142D01*
D11*
%TO.C,JIN1*%
X142414761Y-71842380D02*
X142414761Y-72556666D01*
X142367142Y-72699523D01*
X142271904Y-72794761D01*
X142129047Y-72842380D01*
X142033809Y-72842380D01*
X142890952Y-72842380D02*
X142890952Y-71842380D01*
X143367142Y-72842380D02*
X143367142Y-71842380D01*
X143938571Y-72842380D01*
X143938571Y-71842380D01*
X144938571Y-72842380D02*
X144367142Y-72842380D01*
X144652857Y-72842380D02*
X144652857Y-71842380D01*
X144557619Y-71985238D01*
X144462380Y-72080476D01*
X144367142Y-72128095D01*
%TO.C,JOUT1*%
X162068095Y-70572380D02*
X162068095Y-71286666D01*
X162020476Y-71429523D01*
X161925238Y-71524761D01*
X161782380Y-71572380D01*
X161687142Y-71572380D01*
X162734761Y-70572380D02*
X162925238Y-70572380D01*
X163020476Y-70620000D01*
X163115714Y-70715238D01*
X163163333Y-70905714D01*
X163163333Y-71239047D01*
X163115714Y-71429523D01*
X163020476Y-71524761D01*
X162925238Y-71572380D01*
X162734761Y-71572380D01*
X162639523Y-71524761D01*
X162544285Y-71429523D01*
X162496666Y-71239047D01*
X162496666Y-70905714D01*
X162544285Y-70715238D01*
X162639523Y-70620000D01*
X162734761Y-70572380D01*
X163591904Y-70572380D02*
X163591904Y-71381904D01*
X163639523Y-71477142D01*
X163687142Y-71524761D01*
X163782380Y-71572380D01*
X163972857Y-71572380D01*
X164068095Y-71524761D01*
X164115714Y-71477142D01*
X164163333Y-71381904D01*
X164163333Y-70572380D01*
X164496666Y-70572380D02*
X165068095Y-70572380D01*
X164782380Y-71572380D02*
X164782380Y-70572380D01*
X165925238Y-71572380D02*
X165353809Y-71572380D01*
X165639523Y-71572380D02*
X165639523Y-70572380D01*
X165544285Y-70715238D01*
X165449047Y-70810476D01*
X165353809Y-70858095D01*
%TO.C,R1*%
X153335833Y-63249523D02*
X153052500Y-62844761D01*
X152850119Y-63249523D02*
X152850119Y-62399523D01*
X153173928Y-62399523D01*
X153254880Y-62440000D01*
X153295357Y-62480476D01*
X153335833Y-62561428D01*
X153335833Y-62682857D01*
X153295357Y-62763809D01*
X153254880Y-62804285D01*
X153173928Y-62844761D01*
X152850119Y-62844761D01*
X154145357Y-63249523D02*
X153659642Y-63249523D01*
X153902500Y-63249523D02*
X153902500Y-62399523D01*
X153821547Y-62520952D01*
X153740595Y-62601904D01*
X153659642Y-62642380D01*
%TO.C,U1*%
X152582380Y-66614523D02*
X152582380Y-67302619D01*
X152622857Y-67383571D01*
X152663333Y-67424047D01*
X152744285Y-67464523D01*
X152906190Y-67464523D01*
X152987142Y-67424047D01*
X153027619Y-67383571D01*
X153068095Y-67302619D01*
X153068095Y-66614523D01*
X153918095Y-67464523D02*
X153432380Y-67464523D01*
X153675238Y-67464523D02*
X153675238Y-66614523D01*
X153594285Y-66735952D01*
X153513333Y-66816904D01*
X153432380Y-66857380D01*
D12*
%TO.C,JIN1*%
X145880000Y-63440000D02*
X143220000Y-63440000D01*
X146210000Y-70230000D02*
X145880000Y-70230000D01*
X137220000Y-69470000D02*
X143220000Y-69470000D01*
X145880000Y-66040000D02*
X143220000Y-66040000D01*
X143220000Y-70230000D02*
X137220000Y-70230000D01*
X145880000Y-71180000D02*
X145880000Y-63440000D01*
X143220000Y-70170000D02*
X137220000Y-70170000D01*
X143220000Y-70050000D02*
X137220000Y-70050000D01*
X145880000Y-68580000D02*
X143220000Y-68580000D01*
X143220000Y-71180000D02*
X145880000Y-71180000D01*
X146277071Y-64390000D02*
X145880000Y-64390000D01*
X148590000Y-71120000D02*
X147320000Y-71120000D01*
X143220000Y-69690000D02*
X137220000Y-69690000D01*
X143220000Y-69570000D02*
X137220000Y-69570000D01*
X143220000Y-63440000D02*
X143220000Y-71180000D01*
X143220000Y-69930000D02*
X137220000Y-69930000D01*
X148590000Y-69850000D02*
X148590000Y-71120000D01*
X143220000Y-67690000D02*
X137220000Y-67690000D01*
X137220000Y-67690000D02*
X137220000Y-66930000D01*
X146277071Y-65150000D02*
X145880000Y-65150000D01*
X146277071Y-67690000D02*
X145880000Y-67690000D01*
X146210000Y-69470000D02*
X145880000Y-69470000D01*
X137220000Y-64390000D02*
X143220000Y-64390000D01*
X143220000Y-69810000D02*
X137220000Y-69810000D01*
X143220000Y-65150000D02*
X137220000Y-65150000D01*
X146277071Y-66930000D02*
X145880000Y-66930000D01*
X137220000Y-66930000D02*
X143220000Y-66930000D01*
X137220000Y-65150000D02*
X137220000Y-64390000D01*
X137220000Y-70230000D02*
X137220000Y-69470000D01*
%TO.C,JOUT1*%
X162850000Y-66080000D02*
X168850000Y-66080000D01*
X162850000Y-65960000D02*
X168850000Y-65960000D01*
X160190000Y-64710000D02*
X160190000Y-69910000D01*
X160190000Y-67310000D02*
X162850000Y-67310000D01*
X162850000Y-69910000D02*
X162850000Y-64710000D01*
X162850000Y-65840000D02*
X168850000Y-65840000D01*
X162850000Y-65660000D02*
X168850000Y-65660000D01*
X162850000Y-65720000D02*
X168850000Y-65720000D01*
X162850000Y-64710000D02*
X160190000Y-64710000D01*
X159860000Y-65660000D02*
X160190000Y-65660000D01*
X168850000Y-66420000D02*
X162850000Y-66420000D01*
X159792929Y-68960000D02*
X160190000Y-68960000D01*
X162850000Y-68200000D02*
X168850000Y-68200000D01*
X157480000Y-66040000D02*
X157480000Y-64770000D01*
X162850000Y-66320000D02*
X168850000Y-66320000D01*
X157480000Y-64770000D02*
X158750000Y-64770000D01*
X168850000Y-68200000D02*
X168850000Y-68960000D01*
X159860000Y-66420000D02*
X160190000Y-66420000D01*
X160190000Y-69910000D02*
X162850000Y-69910000D01*
X168850000Y-65660000D02*
X168850000Y-66420000D01*
X159792929Y-68200000D02*
X160190000Y-68200000D01*
X162850000Y-66200000D02*
X168850000Y-66200000D01*
X168850000Y-68960000D02*
X162850000Y-68960000D01*
%TO.C,R1*%
X154204564Y-63860000D02*
X152750436Y-63860000D01*
X154204564Y-65680000D02*
X152750436Y-65680000D01*
%TO.C,U1*%
X154110000Y-68020000D02*
X151680000Y-68020000D01*
X152350000Y-71090000D02*
X154110000Y-71090000D01*
%TD*%
M02*
