%TF.GenerationSoftware,KiCad,Pcbnew,(6.0.1-0)*%
%TF.CreationDate,2022-02-21T21:02:59-07:00*%
%TF.ProjectId,LED,4c45442e-6b69-4636-9164-5f7063625858,rev?*%
%TF.SameCoordinates,Original*%
%TF.FileFunction,Copper,L1,Top*%
%TF.FilePolarity,Positive*%
%FSLAX46Y46*%
G04 Gerber Fmt 4.6, Leading zero omitted, Abs format (unit mm)*
G04 Created by KiCad (PCBNEW (6.0.1-0)) date 2022-02-21 21:02:59*
%MOMM*%
%LPD*%
G01*
G04 APERTURE LIST*
G04 Aperture macros list*
%AMRoundRect*
0 Rectangle with rounded corners*
0 $1 Rounding radius*
0 $2 $3 $4 $5 $6 $7 $8 $9 X,Y pos of 4 corners*
0 Add a 4 corners polygon primitive as box body*
4,1,4,$2,$3,$4,$5,$6,$7,$8,$9,$2,$3,0*
0 Add four circle primitives for the rounded corners*
1,1,$1+$1,$2,$3*
1,1,$1+$1,$4,$5*
1,1,$1+$1,$6,$7*
1,1,$1+$1,$8,$9*
0 Add four rect primitives between the rounded corners*
20,1,$1+$1,$2,$3,$4,$5,0*
20,1,$1+$1,$4,$5,$6,$7,0*
20,1,$1+$1,$6,$7,$8,$9,0*
20,1,$1+$1,$8,$9,$2,$3,0*%
G04 Aperture macros list end*
%TA.AperFunction,ComponentPad*%
%ADD10R,1.700000X1.700000*%
%TD*%
%TA.AperFunction,ComponentPad*%
%ADD11O,1.700000X1.700000*%
%TD*%
%TA.AperFunction,SMDPad,CuDef*%
%ADD12RoundRect,0.250000X0.312500X0.625000X-0.312500X0.625000X-0.312500X-0.625000X0.312500X-0.625000X0*%
%TD*%
%TA.AperFunction,SMDPad,CuDef*%
%ADD13R,2.000000X0.650000*%
%TD*%
%TA.AperFunction,Conductor*%
%ADD14C,0.250000*%
%TD*%
G04 APERTURE END LIST*
D10*
%TO.P,JIN1,1*%
%TO.N,GND*%
X147320000Y-69850000D03*
D11*
%TO.P,JIN1,2*%
%TO.N,Net-(JIN1-Pad2)*%
X147320000Y-67310000D03*
%TO.P,JIN1,3*%
%TO.N,VCC*%
X147320000Y-64770000D03*
%TD*%
D10*
%TO.P,JOUT1,1*%
%TO.N,Net-(JOUT1-Pad1)*%
X158750000Y-66040000D03*
D11*
%TO.P,JOUT1,2*%
%TO.N,GND*%
X158750000Y-68580000D03*
%TD*%
D12*
%TO.P,R1,1*%
%TO.N,Net-(JOUT1-Pad1)*%
X154940000Y-64770000D03*
%TO.P,R1,2*%
%TO.N,Net-(R1-Pad2)*%
X152015000Y-64770000D03*
%TD*%
D13*
%TO.P,U1,1*%
%TO.N,N/C*%
X151520000Y-68580000D03*
%TO.P,U1,2*%
%TO.N,Net-(JIN1-Pad2)*%
X151520000Y-69530000D03*
%TO.P,U1,3*%
%TO.N,GND*%
X151520000Y-70480000D03*
%TO.P,U1,4*%
%TO.N,Net-(R1-Pad2)*%
X154940000Y-70480000D03*
%TO.P,U1,5*%
%TO.N,VCC*%
X154940000Y-68580000D03*
%TD*%
D14*
%TO.N,GND*%
X147320000Y-69850000D02*
X148590000Y-69850000D01*
X158750000Y-69850000D02*
X158750000Y-68580000D01*
X152395000Y-70480000D02*
X153670000Y-71755000D01*
X149220000Y-70480000D02*
X151520000Y-70480000D01*
X153670000Y-71755000D02*
X156845000Y-71755000D01*
X148590000Y-69850000D02*
X149220000Y-70480000D01*
X156845000Y-71755000D02*
X158750000Y-69850000D01*
X151520000Y-70480000D02*
X152395000Y-70480000D01*
%TO.N,Net-(JIN1-Pad2)*%
X147320000Y-67310000D02*
X148590000Y-67310000D01*
X150559998Y-69530000D02*
X151520000Y-69530000D01*
X149225000Y-68195002D02*
X150559998Y-69530000D01*
X149225000Y-67945000D02*
X149225000Y-68195002D01*
X148590000Y-67310000D02*
X149225000Y-67945000D01*
%TO.N,VCC*%
X153670000Y-67310000D02*
X154940000Y-68580000D01*
X148590000Y-64770000D02*
X151130000Y-67310000D01*
X147320000Y-64770000D02*
X148590000Y-64770000D01*
X151130000Y-67310000D02*
X153670000Y-67310000D01*
%TO.N,Net-(JOUT1-Pad1)*%
X155575000Y-64770000D02*
X156845000Y-66040000D01*
X156845000Y-66040000D02*
X158750000Y-66040000D01*
X154940000Y-64770000D02*
X155575000Y-64770000D01*
%TO.N,Net-(R1-Pad2)*%
X156210000Y-66675000D02*
X154305000Y-66675000D01*
X154305000Y-66675000D02*
X152400000Y-64770000D01*
X152400000Y-64770000D02*
X152015000Y-64770000D01*
X156205000Y-70480000D02*
X156845000Y-69840000D01*
X156845000Y-69840000D02*
X156845000Y-67310000D01*
X154940000Y-70480000D02*
X156205000Y-70480000D01*
X156845000Y-67310000D02*
X156210000Y-66675000D01*
%TD*%
%TA.AperFunction,Conductor*%
%TO.N,GND*%
G36*
X160378566Y-62497313D02*
G01*
X160403876Y-62541150D01*
X160405000Y-62554000D01*
X160405000Y-72066000D01*
X160387687Y-72113566D01*
X160343850Y-72138876D01*
X160331000Y-72140000D01*
X145739000Y-72140000D01*
X145691434Y-72122687D01*
X145666124Y-72078850D01*
X145665000Y-72066000D01*
X145665000Y-70746077D01*
X145962001Y-70746077D01*
X145962219Y-70750091D01*
X145968247Y-70805594D01*
X145970376Y-70814550D01*
X146017977Y-70941525D01*
X146022991Y-70950683D01*
X146103931Y-71058681D01*
X146111319Y-71066069D01*
X146219317Y-71147009D01*
X146228475Y-71152023D01*
X146355447Y-71199623D01*
X146364407Y-71201753D01*
X146419911Y-71207783D01*
X146423921Y-71208000D01*
X147052952Y-71208000D01*
X147062948Y-71204362D01*
X147066000Y-71199075D01*
X147066000Y-71194951D01*
X147574000Y-71194951D01*
X147577638Y-71204947D01*
X147582925Y-71207999D01*
X148216077Y-71207999D01*
X148220091Y-71207781D01*
X148275594Y-71201753D01*
X148284550Y-71199624D01*
X148411525Y-71152023D01*
X148420683Y-71147009D01*
X148528681Y-71066069D01*
X148536069Y-71058681D01*
X148617009Y-70950683D01*
X148622023Y-70941525D01*
X148655931Y-70851077D01*
X150012001Y-70851077D01*
X150012219Y-70855091D01*
X150018247Y-70910594D01*
X150020376Y-70919550D01*
X150067977Y-71046525D01*
X150072991Y-71055683D01*
X150153931Y-71163681D01*
X150161319Y-71171069D01*
X150269317Y-71252009D01*
X150278475Y-71257023D01*
X150405447Y-71304623D01*
X150414407Y-71306753D01*
X150469911Y-71312783D01*
X150473921Y-71313000D01*
X151252952Y-71313000D01*
X151262948Y-71309362D01*
X151266000Y-71304075D01*
X151266000Y-71299951D01*
X151774000Y-71299951D01*
X151777638Y-71309947D01*
X151782925Y-71312999D01*
X152566077Y-71312999D01*
X152570091Y-71312781D01*
X152625594Y-71306753D01*
X152634550Y-71304624D01*
X152761525Y-71257023D01*
X152770683Y-71252009D01*
X152878681Y-71171069D01*
X152886069Y-71163681D01*
X152967009Y-71055683D01*
X152972023Y-71046525D01*
X153019623Y-70919553D01*
X153021753Y-70910593D01*
X153027783Y-70855089D01*
X153028000Y-70851079D01*
X153028000Y-70747048D01*
X153024362Y-70737052D01*
X153019075Y-70734000D01*
X151787048Y-70734000D01*
X151777052Y-70737638D01*
X151774000Y-70742925D01*
X151774000Y-71299951D01*
X151266000Y-71299951D01*
X151266000Y-70747048D01*
X151262362Y-70737052D01*
X151257075Y-70734000D01*
X150025049Y-70734000D01*
X150015053Y-70737638D01*
X150012001Y-70742925D01*
X150012001Y-70851077D01*
X148655931Y-70851077D01*
X148669623Y-70814553D01*
X148671753Y-70805593D01*
X148677783Y-70750089D01*
X148678000Y-70746079D01*
X148678000Y-70117048D01*
X148674362Y-70107052D01*
X148669075Y-70104000D01*
X147587048Y-70104000D01*
X147577052Y-70107638D01*
X147574000Y-70112925D01*
X147574000Y-71194951D01*
X147066000Y-71194951D01*
X147066000Y-70117048D01*
X147062362Y-70107052D01*
X147057075Y-70104000D01*
X145975049Y-70104000D01*
X145965053Y-70107638D01*
X145962001Y-70112925D01*
X145962001Y-70746077D01*
X145665000Y-70746077D01*
X145665000Y-69582952D01*
X145962000Y-69582952D01*
X145965638Y-69592948D01*
X145970925Y-69596000D01*
X148664951Y-69596000D01*
X148674947Y-69592362D01*
X148677999Y-69587075D01*
X148677999Y-68953923D01*
X148677781Y-68949909D01*
X148671753Y-68894406D01*
X148669624Y-68885450D01*
X148622023Y-68758475D01*
X148617009Y-68749317D01*
X148536069Y-68641319D01*
X148528681Y-68633931D01*
X148420683Y-68552991D01*
X148411525Y-68547977D01*
X148284553Y-68500377D01*
X148275593Y-68498247D01*
X148220089Y-68492217D01*
X148216079Y-68492000D01*
X147710058Y-68492000D01*
X147662492Y-68474687D01*
X147637182Y-68430850D01*
X147645972Y-68381000D01*
X147686271Y-68347927D01*
X147766323Y-68320753D01*
X147769531Y-68319664D01*
X147772483Y-68318011D01*
X147772487Y-68318009D01*
X147943041Y-68222495D01*
X147943044Y-68222493D01*
X147946001Y-68220837D01*
X147948606Y-68218670D01*
X147948611Y-68218667D01*
X148098897Y-68093674D01*
X148101505Y-68091505D01*
X148137898Y-68047747D01*
X148228667Y-67938611D01*
X148228670Y-67938606D01*
X148230837Y-67936001D01*
X148244954Y-67910794D01*
X148289780Y-67830750D01*
X148329664Y-67759531D01*
X148336732Y-67738709D01*
X148368415Y-67699231D01*
X148418061Y-67689355D01*
X148459131Y-67710168D01*
X148653375Y-67904413D01*
X148827826Y-68078864D01*
X148849218Y-68124741D01*
X148849500Y-68131190D01*
X148849500Y-68147039D01*
X148847842Y-68162614D01*
X148846018Y-68171086D01*
X148846018Y-68171091D01*
X148844731Y-68177068D01*
X148845450Y-68183143D01*
X148848987Y-68213029D01*
X148849500Y-68221726D01*
X148849500Y-68226195D01*
X148850002Y-68229209D01*
X148850002Y-68229213D01*
X148852832Y-68246217D01*
X148853323Y-68249667D01*
X148859424Y-68301212D01*
X148862072Y-68306726D01*
X148862803Y-68309242D01*
X148862868Y-68309526D01*
X148862983Y-68309808D01*
X148863828Y-68312276D01*
X148864833Y-68318315D01*
X148887931Y-68361122D01*
X148889481Y-68363995D01*
X148891065Y-68367103D01*
X148911521Y-68409705D01*
X148911524Y-68409709D01*
X148913537Y-68413902D01*
X148917094Y-68418133D01*
X148917856Y-68418895D01*
X148921313Y-68422991D01*
X148924194Y-68428331D01*
X148928685Y-68432482D01*
X148928687Y-68432485D01*
X148964095Y-68465215D01*
X148966190Y-68467229D01*
X150173316Y-69674355D01*
X150194708Y-69720231D01*
X150181607Y-69769126D01*
X150165368Y-69785897D01*
X150161317Y-69788933D01*
X150153931Y-69796319D01*
X150072991Y-69904317D01*
X150067977Y-69913475D01*
X150020377Y-70040447D01*
X150018247Y-70049407D01*
X150012217Y-70104911D01*
X150012000Y-70108921D01*
X150012000Y-70212952D01*
X150015638Y-70222948D01*
X150020925Y-70226000D01*
X153014951Y-70226000D01*
X153024947Y-70222362D01*
X153027999Y-70217075D01*
X153027999Y-70108923D01*
X153027781Y-70104909D01*
X153021753Y-70049406D01*
X153019624Y-70040450D01*
X152972023Y-69913475D01*
X152967009Y-69904317D01*
X152886069Y-69796319D01*
X152878685Y-69788935D01*
X152800121Y-69730055D01*
X152772440Y-69687674D01*
X152770500Y-69670839D01*
X152770500Y-69180326D01*
X152765421Y-69154790D01*
X152757388Y-69114409D01*
X152755966Y-69107260D01*
X152748516Y-69096110D01*
X152736486Y-69046941D01*
X152748516Y-69013890D01*
X152751916Y-69008801D01*
X152755966Y-69002740D01*
X152760869Y-68978094D01*
X152769790Y-68933244D01*
X152769790Y-68933243D01*
X152770500Y-68929674D01*
X152770500Y-68230326D01*
X152768789Y-68221726D01*
X152757388Y-68164407D01*
X152757387Y-68164405D01*
X152755966Y-68157260D01*
X152746975Y-68143803D01*
X152704650Y-68080459D01*
X152700601Y-68074399D01*
X152648318Y-68039465D01*
X152623799Y-68023082D01*
X152623797Y-68023081D01*
X152617740Y-68019034D01*
X152610595Y-68017613D01*
X152610593Y-68017612D01*
X152548244Y-68005210D01*
X152548243Y-68005210D01*
X152544674Y-68004500D01*
X150495326Y-68004500D01*
X150491757Y-68005210D01*
X150491756Y-68005210D01*
X150429407Y-68017612D01*
X150429405Y-68017613D01*
X150422260Y-68019034D01*
X150416203Y-68023081D01*
X150416201Y-68023082D01*
X150391682Y-68039465D01*
X150339399Y-68074399D01*
X150335350Y-68080459D01*
X150293026Y-68143803D01*
X150284034Y-68157260D01*
X150282613Y-68164405D01*
X150282612Y-68164407D01*
X150271211Y-68221726D01*
X150269500Y-68230326D01*
X150269500Y-68529813D01*
X150252187Y-68577379D01*
X150208350Y-68602689D01*
X150158500Y-68593899D01*
X150143174Y-68582139D01*
X149622174Y-68061139D01*
X149600782Y-68015263D01*
X149600500Y-68008813D01*
X149600500Y-67992963D01*
X149602158Y-67977387D01*
X149603982Y-67968915D01*
X149605270Y-67962934D01*
X149604092Y-67952976D01*
X149601013Y-67926966D01*
X149600500Y-67918268D01*
X149600500Y-67913807D01*
X149597170Y-67893801D01*
X149596679Y-67890349D01*
X149590577Y-67838791D01*
X149587932Y-67833282D01*
X149587196Y-67830750D01*
X149587133Y-67830476D01*
X149587016Y-67830189D01*
X149586171Y-67827721D01*
X149585167Y-67821687D01*
X149560495Y-67775961D01*
X149558949Y-67772927D01*
X149536463Y-67726101D01*
X149532906Y-67721869D01*
X149532144Y-67721107D01*
X149528687Y-67717011D01*
X149525806Y-67711671D01*
X149521316Y-67707520D01*
X149521314Y-67707518D01*
X149485905Y-67674787D01*
X149483810Y-67672773D01*
X148889433Y-67078396D01*
X148879592Y-67066210D01*
X148874892Y-67058931D01*
X148874890Y-67058929D01*
X148871572Y-67053790D01*
X148843135Y-67031372D01*
X148836622Y-67025585D01*
X148833462Y-67022425D01*
X148828146Y-67018626D01*
X148816958Y-67010631D01*
X148814171Y-67008539D01*
X148809451Y-67004818D01*
X148773400Y-66976397D01*
X148767630Y-66974371D01*
X148765331Y-66973107D01*
X148765086Y-66972953D01*
X148764809Y-66972837D01*
X148762460Y-66971686D01*
X148757481Y-66968128D01*
X148707756Y-66953257D01*
X148704440Y-66952180D01*
X148659841Y-66936518D01*
X148659839Y-66936518D01*
X148655452Y-66934977D01*
X148649945Y-66934500D01*
X148648866Y-66934500D01*
X148643526Y-66934049D01*
X148637713Y-66932310D01*
X148631601Y-66932550D01*
X148631600Y-66932550D01*
X148583427Y-66934443D01*
X148580522Y-66934500D01*
X148407969Y-66934500D01*
X148360403Y-66917187D01*
X148341600Y-66893229D01*
X148340148Y-66890284D01*
X148262351Y-66732527D01*
X148244079Y-66708057D01*
X148143367Y-66573188D01*
X148143366Y-66573187D01*
X148141335Y-66570467D01*
X148138844Y-66568164D01*
X148138841Y-66568161D01*
X147995304Y-66435477D01*
X147995300Y-66435474D01*
X147992812Y-66433174D01*
X147968915Y-66418096D01*
X147824618Y-66327051D01*
X147824617Y-66327050D01*
X147821757Y-66325246D01*
X147818614Y-66323992D01*
X147818612Y-66323991D01*
X147637052Y-66251556D01*
X147637049Y-66251555D01*
X147633898Y-66250298D01*
X147630571Y-66249636D01*
X147630567Y-66249635D01*
X147438849Y-66211500D01*
X147435526Y-66210839D01*
X147348249Y-66209697D01*
X147236680Y-66208236D01*
X147236675Y-66208236D01*
X147233286Y-66208192D01*
X147229941Y-66208767D01*
X147229938Y-66208767D01*
X147133618Y-66225318D01*
X147033949Y-66242444D01*
X146844193Y-66312449D01*
X146670371Y-66415862D01*
X146667827Y-66418093D01*
X146667823Y-66418096D01*
X146638974Y-66443396D01*
X146518305Y-66549220D01*
X146393089Y-66708057D01*
X146298914Y-66887053D01*
X146238937Y-67080213D01*
X146229703Y-67158230D01*
X146217800Y-67258801D01*
X146215164Y-67281069D01*
X146228392Y-67482894D01*
X146253444Y-67581536D01*
X146275084Y-67666744D01*
X146278178Y-67678928D01*
X146279599Y-67682011D01*
X146279600Y-67682013D01*
X146297232Y-67720260D01*
X146362856Y-67862607D01*
X146364810Y-67865372D01*
X146364813Y-67865377D01*
X146477635Y-68025017D01*
X146479588Y-68027780D01*
X146482014Y-68030143D01*
X146610098Y-68154916D01*
X146624466Y-68168913D01*
X146627278Y-68170792D01*
X146627283Y-68170796D01*
X146716376Y-68230326D01*
X146792637Y-68281282D01*
X146795750Y-68282619D01*
X146795762Y-68282626D01*
X146952605Y-68350011D01*
X146989474Y-68384694D01*
X146995424Y-68434962D01*
X146967670Y-68477294D01*
X146923394Y-68492001D01*
X146423923Y-68492001D01*
X146419909Y-68492219D01*
X146364406Y-68498247D01*
X146355450Y-68500376D01*
X146228475Y-68547977D01*
X146219317Y-68552991D01*
X146111319Y-68633931D01*
X146103931Y-68641319D01*
X146022991Y-68749317D01*
X146017977Y-68758475D01*
X145970377Y-68885447D01*
X145968247Y-68894407D01*
X145962217Y-68949911D01*
X145962000Y-68953921D01*
X145962000Y-69582952D01*
X145665000Y-69582952D01*
X145665000Y-64741069D01*
X146215164Y-64741069D01*
X146228392Y-64942894D01*
X146278178Y-65138928D01*
X146362856Y-65322607D01*
X146364810Y-65325372D01*
X146364813Y-65325377D01*
X146477635Y-65485017D01*
X146479588Y-65487780D01*
X146624466Y-65628913D01*
X146627278Y-65630792D01*
X146627283Y-65630796D01*
X146778251Y-65731669D01*
X146792637Y-65741282D01*
X146795751Y-65742620D01*
X146795753Y-65742621D01*
X146884508Y-65780753D01*
X146978470Y-65821122D01*
X147063569Y-65840378D01*
X147172425Y-65865010D01*
X147172426Y-65865010D01*
X147175740Y-65865760D01*
X147271462Y-65869521D01*
X147374447Y-65873567D01*
X147374451Y-65873567D01*
X147377842Y-65873700D01*
X147511504Y-65854320D01*
X147574649Y-65845165D01*
X147574650Y-65845165D01*
X147578007Y-65844678D01*
X147769531Y-65779664D01*
X147772483Y-65778011D01*
X147772487Y-65778009D01*
X147943041Y-65682495D01*
X147943044Y-65682493D01*
X147946001Y-65680837D01*
X147948606Y-65678670D01*
X147948611Y-65678667D01*
X148098897Y-65553674D01*
X148101505Y-65551505D01*
X148164764Y-65475445D01*
X148228667Y-65398611D01*
X148228670Y-65398606D01*
X148230837Y-65396001D01*
X148329664Y-65219531D01*
X148336732Y-65198709D01*
X148368415Y-65159231D01*
X148418061Y-65149355D01*
X148459131Y-65170168D01*
X150830567Y-67541604D01*
X150840408Y-67553790D01*
X150845108Y-67561069D01*
X150845110Y-67561071D01*
X150848428Y-67566210D01*
X150853233Y-67569998D01*
X150876865Y-67588628D01*
X150883378Y-67594415D01*
X150886538Y-67597575D01*
X150889014Y-67599345D01*
X150889016Y-67599346D01*
X150903042Y-67609369D01*
X150905822Y-67611456D01*
X150946600Y-67643603D01*
X150952370Y-67645629D01*
X150954669Y-67646893D01*
X150954914Y-67647047D01*
X150955191Y-67647163D01*
X150957540Y-67648314D01*
X150962519Y-67651872D01*
X151001829Y-67663628D01*
X151012247Y-67666744D01*
X151015563Y-67667821D01*
X151060159Y-67683482D01*
X151060161Y-67683482D01*
X151064548Y-67685023D01*
X151070055Y-67685500D01*
X151071133Y-67685500D01*
X151076473Y-67685951D01*
X151082286Y-67687690D01*
X151088398Y-67687450D01*
X151088399Y-67687450D01*
X151136572Y-67685557D01*
X151139477Y-67685500D01*
X153483811Y-67685500D01*
X153531377Y-67702813D01*
X153536137Y-67707174D01*
X153781939Y-67952976D01*
X153803331Y-67998852D01*
X153790230Y-68047747D01*
X153770726Y-68066830D01*
X153765461Y-68070348D01*
X153765459Y-68070350D01*
X153759399Y-68074399D01*
X153755350Y-68080459D01*
X153713026Y-68143803D01*
X153704034Y-68157260D01*
X153702613Y-68164405D01*
X153702612Y-68164407D01*
X153691211Y-68221726D01*
X153689500Y-68230326D01*
X153689500Y-68929674D01*
X153690210Y-68933243D01*
X153690210Y-68933244D01*
X153694324Y-68953923D01*
X153704034Y-69002740D01*
X153708081Y-69008797D01*
X153708082Y-69008799D01*
X153711484Y-69013890D01*
X153759399Y-69085601D01*
X153765459Y-69089650D01*
X153836201Y-69136918D01*
X153836203Y-69136919D01*
X153842260Y-69140966D01*
X153849405Y-69142387D01*
X153849407Y-69142388D01*
X153911756Y-69154790D01*
X153911757Y-69154790D01*
X153915326Y-69155500D01*
X155964674Y-69155500D01*
X155968243Y-69154790D01*
X155968244Y-69154790D01*
X156030593Y-69142388D01*
X156030595Y-69142387D01*
X156037740Y-69140966D01*
X156043797Y-69136919D01*
X156043799Y-69136918D01*
X156114541Y-69089650D01*
X156120601Y-69085601D01*
X156168516Y-69013890D01*
X156171918Y-69008799D01*
X156171919Y-69008797D01*
X156175966Y-69002740D01*
X156185677Y-68953923D01*
X156189790Y-68933244D01*
X156189790Y-68933243D01*
X156190500Y-68929674D01*
X156190500Y-68230326D01*
X156188789Y-68221726D01*
X156177388Y-68164407D01*
X156177387Y-68164405D01*
X156175966Y-68157260D01*
X156166975Y-68143803D01*
X156124650Y-68080459D01*
X156120601Y-68074399D01*
X156068318Y-68039465D01*
X156043799Y-68023082D01*
X156043797Y-68023081D01*
X156037740Y-68019034D01*
X156030595Y-68017613D01*
X156030593Y-68017612D01*
X155968244Y-68005210D01*
X155968243Y-68005210D01*
X155964674Y-68004500D01*
X154926189Y-68004500D01*
X154878623Y-67987187D01*
X154873863Y-67982826D01*
X153969433Y-67078396D01*
X153959598Y-67066220D01*
X153958436Y-67064421D01*
X153951174Y-67032607D01*
X153911378Y-67020936D01*
X153910984Y-67020654D01*
X153896958Y-67010631D01*
X153894171Y-67008539D01*
X153889451Y-67004818D01*
X153853400Y-66976397D01*
X153847630Y-66974371D01*
X153845331Y-66973107D01*
X153845086Y-66972953D01*
X153844809Y-66972837D01*
X153842460Y-66971686D01*
X153837481Y-66968128D01*
X153787756Y-66953257D01*
X153784440Y-66952180D01*
X153739841Y-66936518D01*
X153739839Y-66936518D01*
X153735452Y-66934977D01*
X153729945Y-66934500D01*
X153728866Y-66934500D01*
X153723526Y-66934049D01*
X153717713Y-66932310D01*
X153711601Y-66932550D01*
X153711600Y-66932550D01*
X153663427Y-66934443D01*
X153660522Y-66934500D01*
X151316189Y-66934500D01*
X151268623Y-66917187D01*
X151263863Y-66912826D01*
X148889433Y-64538396D01*
X148879592Y-64526210D01*
X148874892Y-64518931D01*
X148874890Y-64518929D01*
X148871572Y-64513790D01*
X148843135Y-64491372D01*
X148836622Y-64485585D01*
X148833462Y-64482425D01*
X148816958Y-64470631D01*
X148814171Y-64468539D01*
X148773400Y-64436397D01*
X148767630Y-64434371D01*
X148765331Y-64433107D01*
X148765086Y-64432953D01*
X148764809Y-64432837D01*
X148762460Y-64431686D01*
X148757481Y-64428128D01*
X148707756Y-64413257D01*
X148704440Y-64412180D01*
X148659841Y-64396518D01*
X148659839Y-64396518D01*
X148655452Y-64394977D01*
X148649945Y-64394500D01*
X148648866Y-64394500D01*
X148643526Y-64394049D01*
X148637713Y-64392310D01*
X148631601Y-64392550D01*
X148631600Y-64392550D01*
X148583427Y-64394443D01*
X148580522Y-64394500D01*
X148407969Y-64394500D01*
X148360403Y-64377187D01*
X148341600Y-64353229D01*
X148340148Y-64350284D01*
X148262351Y-64192527D01*
X148244079Y-64168057D01*
X148191483Y-64097623D01*
X151202000Y-64097623D01*
X151202001Y-65442376D01*
X151208649Y-65503580D01*
X151258974Y-65637824D01*
X151344954Y-65752546D01*
X151459676Y-65838526D01*
X151464612Y-65840376D01*
X151464615Y-65840378D01*
X151589574Y-65887222D01*
X151589576Y-65887222D01*
X151593920Y-65888851D01*
X151631567Y-65892941D01*
X151653124Y-65895283D01*
X151653127Y-65895283D01*
X151655123Y-65895500D01*
X152014910Y-65895500D01*
X152374876Y-65895499D01*
X152376870Y-65895282D01*
X152376878Y-65895282D01*
X152424620Y-65890096D01*
X152436080Y-65888851D01*
X152477798Y-65873212D01*
X152565385Y-65840378D01*
X152565388Y-65840376D01*
X152570324Y-65838526D01*
X152685046Y-65752546D01*
X152705171Y-65725694D01*
X152747549Y-65698015D01*
X152797807Y-65704051D01*
X152816711Y-65717748D01*
X154005567Y-66906604D01*
X154015402Y-66918780D01*
X154016564Y-66920579D01*
X154023826Y-66952393D01*
X154063622Y-66964064D01*
X154078041Y-66974368D01*
X154080822Y-66976456D01*
X154121600Y-67008603D01*
X154127370Y-67010629D01*
X154129669Y-67011893D01*
X154129914Y-67012047D01*
X154130191Y-67012163D01*
X154132541Y-67013314D01*
X154137519Y-67016872D01*
X154143379Y-67018625D01*
X154143382Y-67018626D01*
X154187253Y-67031746D01*
X154190569Y-67032823D01*
X154235159Y-67048482D01*
X154235161Y-67048482D01*
X154239548Y-67050023D01*
X154245055Y-67050500D01*
X154246132Y-67050500D01*
X154251475Y-67050953D01*
X154257287Y-67052691D01*
X154263397Y-67052451D01*
X154311598Y-67050557D01*
X154314503Y-67050500D01*
X156023811Y-67050500D01*
X156071377Y-67067813D01*
X156076137Y-67072174D01*
X156447826Y-67443864D01*
X156469218Y-67489741D01*
X156469500Y-67496190D01*
X156469500Y-69653811D01*
X156452187Y-69701377D01*
X156447826Y-69706137D01*
X156198889Y-69955074D01*
X156153013Y-69976466D01*
X156105453Y-69964277D01*
X156037740Y-69919034D01*
X156030595Y-69917613D01*
X156030593Y-69917612D01*
X155968244Y-69905210D01*
X155968243Y-69905210D01*
X155964674Y-69904500D01*
X153915326Y-69904500D01*
X153911757Y-69905210D01*
X153911756Y-69905210D01*
X153849407Y-69917612D01*
X153849405Y-69917613D01*
X153842260Y-69919034D01*
X153836203Y-69923081D01*
X153836201Y-69923082D01*
X153789284Y-69954431D01*
X153759399Y-69974399D01*
X153755350Y-69980459D01*
X153709282Y-70049406D01*
X153704034Y-70057260D01*
X153702613Y-70064405D01*
X153702612Y-70064407D01*
X153694013Y-70107638D01*
X153689500Y-70130326D01*
X153689500Y-70829674D01*
X153690210Y-70833243D01*
X153690210Y-70833244D01*
X153693918Y-70851882D01*
X153704034Y-70902740D01*
X153708081Y-70908797D01*
X153708082Y-70908799D01*
X153715266Y-70919550D01*
X153759399Y-70985601D01*
X153765459Y-70989650D01*
X153836201Y-71036918D01*
X153836203Y-71036919D01*
X153842260Y-71040966D01*
X153849405Y-71042387D01*
X153849407Y-71042388D01*
X153911756Y-71054790D01*
X153911757Y-71054790D01*
X153915326Y-71055500D01*
X155964674Y-71055500D01*
X155968243Y-71054790D01*
X155968244Y-71054790D01*
X156030593Y-71042388D01*
X156030595Y-71042387D01*
X156037740Y-71040966D01*
X156043797Y-71036919D01*
X156043799Y-71036918D01*
X156114541Y-70989650D01*
X156120601Y-70985601D01*
X156175966Y-70902740D01*
X156176696Y-70899070D01*
X156209529Y-70863240D01*
X156236200Y-70855536D01*
X156236194Y-70855500D01*
X156236505Y-70855448D01*
X156236504Y-70855448D01*
X156239194Y-70855000D01*
X156239200Y-70855000D01*
X156256215Y-70852168D01*
X156259665Y-70851677D01*
X156305136Y-70846295D01*
X156305137Y-70846295D01*
X156311210Y-70845576D01*
X156316724Y-70842928D01*
X156319240Y-70842197D01*
X156319524Y-70842132D01*
X156319806Y-70842017D01*
X156322274Y-70841172D01*
X156328313Y-70840167D01*
X156373994Y-70815518D01*
X156377101Y-70813935D01*
X156419703Y-70793479D01*
X156419707Y-70793476D01*
X156423900Y-70791463D01*
X156428131Y-70787906D01*
X156428893Y-70787144D01*
X156432989Y-70783687D01*
X156438329Y-70780806D01*
X156442480Y-70776315D01*
X156442483Y-70776313D01*
X156475212Y-70740906D01*
X156477226Y-70738811D01*
X157076606Y-70139431D01*
X157088793Y-70129589D01*
X157096070Y-70124891D01*
X157096071Y-70124890D01*
X157101210Y-70121572D01*
X157123625Y-70093139D01*
X157129412Y-70086626D01*
X157132576Y-70083462D01*
X157134347Y-70080984D01*
X157134351Y-70080979D01*
X157144385Y-70066937D01*
X157146459Y-70064174D01*
X157178603Y-70023400D01*
X157180630Y-70017627D01*
X157181896Y-70015325D01*
X157182051Y-70015078D01*
X157182162Y-70014814D01*
X157183317Y-70012456D01*
X157186872Y-70007481D01*
X157201746Y-69957747D01*
X157202823Y-69954431D01*
X157218482Y-69909841D01*
X157218482Y-69909839D01*
X157220023Y-69905452D01*
X157220500Y-69899945D01*
X157220500Y-69898868D01*
X157220953Y-69893525D01*
X157222691Y-69887713D01*
X157220557Y-69833401D01*
X157220500Y-69830497D01*
X157220500Y-68840166D01*
X157416703Y-68840166D01*
X157416727Y-68841173D01*
X157449033Y-68984523D01*
X157450845Y-68990305D01*
X157532569Y-69191571D01*
X157535304Y-69196984D01*
X157648802Y-69382197D01*
X157652383Y-69387090D01*
X157794614Y-69551285D01*
X157798934Y-69555516D01*
X157966079Y-69694282D01*
X157971038Y-69697755D01*
X158158591Y-69807352D01*
X158164056Y-69809970D01*
X158366987Y-69887462D01*
X158372819Y-69889156D01*
X158483213Y-69911615D01*
X158493734Y-69910043D01*
X158495946Y-69907543D01*
X158496000Y-69907256D01*
X158496000Y-69903584D01*
X159004000Y-69903584D01*
X159007638Y-69913580D01*
X159011304Y-69915696D01*
X159030304Y-69913262D01*
X159036214Y-69912006D01*
X159244296Y-69849579D01*
X159249925Y-69847372D01*
X159445010Y-69751801D01*
X159450208Y-69748702D01*
X159627073Y-69622547D01*
X159631680Y-69618654D01*
X159785560Y-69465309D01*
X159789489Y-69460692D01*
X159916250Y-69284285D01*
X159919367Y-69279097D01*
X160015616Y-69084354D01*
X160017849Y-69078714D01*
X160080996Y-68870873D01*
X160082277Y-68864948D01*
X160084648Y-68846937D01*
X160082346Y-68836551D01*
X160079021Y-68834000D01*
X159017048Y-68834000D01*
X159007052Y-68837638D01*
X159004000Y-68842925D01*
X159004000Y-69903584D01*
X158496000Y-69903584D01*
X158496000Y-68847048D01*
X158492362Y-68837052D01*
X158487075Y-68834000D01*
X157428158Y-68834000D01*
X157418162Y-68837638D01*
X157416703Y-68840166D01*
X157220500Y-68840166D01*
X157220500Y-67357963D01*
X157222158Y-67342387D01*
X157223982Y-67333915D01*
X157225270Y-67327934D01*
X157221013Y-67291966D01*
X157220500Y-67283268D01*
X157220500Y-67278807D01*
X157217170Y-67258801D01*
X157216679Y-67255349D01*
X157210577Y-67203791D01*
X157207932Y-67198282D01*
X157207196Y-67195750D01*
X157207133Y-67195476D01*
X157207016Y-67195189D01*
X157206171Y-67192721D01*
X157205167Y-67186687D01*
X157180495Y-67140961D01*
X157178949Y-67137927D01*
X157156463Y-67091101D01*
X157152906Y-67086869D01*
X157152144Y-67086107D01*
X157148687Y-67082011D01*
X157145806Y-67076671D01*
X157141316Y-67072520D01*
X157141314Y-67072518D01*
X157105905Y-67039787D01*
X157103810Y-67037773D01*
X156509433Y-66443396D01*
X156499598Y-66431220D01*
X156498436Y-66429421D01*
X156491174Y-66397607D01*
X156451378Y-66385936D01*
X156436959Y-66375632D01*
X156434171Y-66373539D01*
X156429451Y-66369818D01*
X156393400Y-66341397D01*
X156387630Y-66339371D01*
X156385331Y-66338107D01*
X156385086Y-66337953D01*
X156384809Y-66337837D01*
X156382460Y-66336686D01*
X156377481Y-66333128D01*
X156327756Y-66318257D01*
X156324440Y-66317180D01*
X156279841Y-66301518D01*
X156279839Y-66301518D01*
X156275452Y-66299977D01*
X156269945Y-66299500D01*
X156268866Y-66299500D01*
X156263526Y-66299049D01*
X156257713Y-66297310D01*
X156251601Y-66297550D01*
X156251600Y-66297550D01*
X156203427Y-66299443D01*
X156200522Y-66299500D01*
X154491189Y-66299500D01*
X154443623Y-66282187D01*
X154438863Y-66277826D01*
X152849673Y-64688636D01*
X152828281Y-64642760D01*
X152827999Y-64636310D01*
X152827999Y-64097624D01*
X152827999Y-64097623D01*
X154127000Y-64097623D01*
X154127001Y-65442376D01*
X154133649Y-65503580D01*
X154183974Y-65637824D01*
X154269954Y-65752546D01*
X154384676Y-65838526D01*
X154389612Y-65840376D01*
X154389615Y-65840378D01*
X154514574Y-65887222D01*
X154514576Y-65887222D01*
X154518920Y-65888851D01*
X154556567Y-65892941D01*
X154578124Y-65895283D01*
X154578127Y-65895283D01*
X154580123Y-65895500D01*
X154939910Y-65895500D01*
X155299876Y-65895499D01*
X155301870Y-65895282D01*
X155301878Y-65895282D01*
X155349620Y-65890096D01*
X155361080Y-65888851D01*
X155402798Y-65873212D01*
X155490385Y-65840378D01*
X155490388Y-65840376D01*
X155495324Y-65838526D01*
X155610046Y-65752546D01*
X155696026Y-65637824D01*
X155714511Y-65588515D01*
X155747419Y-65550053D01*
X155797351Y-65541742D01*
X155836128Y-65562165D01*
X156545567Y-66271604D01*
X156555402Y-66283780D01*
X156556564Y-66285579D01*
X156563826Y-66317393D01*
X156603622Y-66329064D01*
X156618041Y-66339368D01*
X156620822Y-66341456D01*
X156661600Y-66373603D01*
X156667370Y-66375629D01*
X156669669Y-66376893D01*
X156669914Y-66377047D01*
X156670191Y-66377163D01*
X156672540Y-66378314D01*
X156677519Y-66381872D01*
X156716829Y-66393628D01*
X156727247Y-66396744D01*
X156730563Y-66397821D01*
X156775159Y-66413482D01*
X156775161Y-66413482D01*
X156779548Y-66415023D01*
X156785055Y-66415500D01*
X156786133Y-66415500D01*
X156791473Y-66415951D01*
X156797286Y-66417690D01*
X156803398Y-66417450D01*
X156803399Y-66417450D01*
X156851572Y-66415557D01*
X156854477Y-66415500D01*
X157575500Y-66415500D01*
X157623066Y-66432813D01*
X157648376Y-66476650D01*
X157649500Y-66489500D01*
X157649500Y-66914674D01*
X157650210Y-66918243D01*
X157650210Y-66918244D01*
X157662531Y-66980182D01*
X157664034Y-66987740D01*
X157668081Y-66993797D01*
X157668082Y-66993799D01*
X157689321Y-67025585D01*
X157719399Y-67070601D01*
X157725459Y-67074650D01*
X157796201Y-67121918D01*
X157796203Y-67121919D01*
X157802260Y-67125966D01*
X157809405Y-67127387D01*
X157809407Y-67127388D01*
X157871756Y-67139790D01*
X157871757Y-67139790D01*
X157875326Y-67140500D01*
X158318224Y-67140500D01*
X158365790Y-67157813D01*
X158391100Y-67201650D01*
X158382310Y-67251500D01*
X158341214Y-67284838D01*
X158224834Y-67322876D01*
X158219260Y-67325220D01*
X158026563Y-67425531D01*
X158021451Y-67428750D01*
X157847728Y-67559186D01*
X157843199Y-67563207D01*
X157693115Y-67720260D01*
X157689308Y-67724962D01*
X157566895Y-67904413D01*
X157563896Y-67909691D01*
X157472440Y-68106717D01*
X157470347Y-68112406D01*
X157413662Y-68316804D01*
X157415281Y-68323352D01*
X157418911Y-68326000D01*
X160073411Y-68326000D01*
X160083407Y-68322362D01*
X160084621Y-68320258D01*
X160084555Y-68318422D01*
X160040694Y-68143803D01*
X160038748Y-68138087D01*
X159952120Y-67938856D01*
X159949266Y-67933532D01*
X159831265Y-67751131D01*
X159827575Y-67746339D01*
X159681370Y-67585663D01*
X159676945Y-67581536D01*
X159506460Y-67446896D01*
X159501425Y-67443551D01*
X159311245Y-67338565D01*
X159305717Y-67336081D01*
X159159365Y-67284255D01*
X159120306Y-67252058D01*
X159111082Y-67202286D01*
X159136008Y-67158230D01*
X159184067Y-67140500D01*
X159624674Y-67140500D01*
X159628243Y-67139790D01*
X159628244Y-67139790D01*
X159690593Y-67127388D01*
X159690595Y-67127387D01*
X159697740Y-67125966D01*
X159703797Y-67121919D01*
X159703799Y-67121918D01*
X159774541Y-67074650D01*
X159780601Y-67070601D01*
X159810679Y-67025585D01*
X159831918Y-66993799D01*
X159831919Y-66993797D01*
X159835966Y-66987740D01*
X159837470Y-66980182D01*
X159849790Y-66918244D01*
X159849790Y-66918243D01*
X159850500Y-66914674D01*
X159850500Y-65165326D01*
X159845249Y-65138928D01*
X159837388Y-65099407D01*
X159837387Y-65099405D01*
X159835966Y-65092260D01*
X159780601Y-65009399D01*
X159761831Y-64996857D01*
X159703799Y-64958082D01*
X159703797Y-64958081D01*
X159697740Y-64954034D01*
X159690595Y-64952613D01*
X159690593Y-64952612D01*
X159628244Y-64940210D01*
X159628243Y-64940210D01*
X159624674Y-64939500D01*
X157875326Y-64939500D01*
X157871757Y-64940210D01*
X157871756Y-64940210D01*
X157809407Y-64952612D01*
X157809405Y-64952613D01*
X157802260Y-64954034D01*
X157796203Y-64958081D01*
X157796201Y-64958082D01*
X157738169Y-64996857D01*
X157719399Y-65009399D01*
X157664034Y-65092260D01*
X157662613Y-65099405D01*
X157662612Y-65099407D01*
X157654751Y-65138928D01*
X157649500Y-65165326D01*
X157649500Y-65590500D01*
X157632187Y-65638066D01*
X157588350Y-65663376D01*
X157575500Y-65664500D01*
X157031189Y-65664500D01*
X156983623Y-65647187D01*
X156978863Y-65642826D01*
X155874433Y-64538396D01*
X155864592Y-64526210D01*
X155859892Y-64518931D01*
X155859890Y-64518929D01*
X155856572Y-64513790D01*
X155828135Y-64491372D01*
X155821622Y-64485585D01*
X155818462Y-64482425D01*
X155801958Y-64470631D01*
X155799172Y-64468539D01*
X155781187Y-64454361D01*
X155754550Y-64411317D01*
X155752999Y-64396247D01*
X155752999Y-64097624D01*
X155746351Y-64036420D01*
X155696026Y-63902176D01*
X155610046Y-63787454D01*
X155495324Y-63701474D01*
X155490388Y-63699624D01*
X155490385Y-63699622D01*
X155365426Y-63652778D01*
X155365424Y-63652778D01*
X155361080Y-63651149D01*
X155323433Y-63647059D01*
X155301876Y-63644717D01*
X155301873Y-63644717D01*
X155299877Y-63644500D01*
X154940090Y-63644500D01*
X154580124Y-63644501D01*
X154578130Y-63644718D01*
X154578122Y-63644718D01*
X154530380Y-63649904D01*
X154518920Y-63651149D01*
X154514574Y-63652778D01*
X154514575Y-63652778D01*
X154389615Y-63699622D01*
X154389612Y-63699624D01*
X154384676Y-63701474D01*
X154269954Y-63787454D01*
X154183974Y-63902176D01*
X154182124Y-63907112D01*
X154182122Y-63907115D01*
X154135278Y-64032074D01*
X154133649Y-64036420D01*
X154127000Y-64097623D01*
X152827999Y-64097623D01*
X152821351Y-64036420D01*
X152771026Y-63902176D01*
X152685046Y-63787454D01*
X152570324Y-63701474D01*
X152565388Y-63699624D01*
X152565385Y-63699622D01*
X152440426Y-63652778D01*
X152440424Y-63652778D01*
X152436080Y-63651149D01*
X152398433Y-63647059D01*
X152376876Y-63644717D01*
X152376873Y-63644717D01*
X152374877Y-63644500D01*
X152015090Y-63644500D01*
X151655124Y-63644501D01*
X151653130Y-63644718D01*
X151653122Y-63644718D01*
X151605380Y-63649904D01*
X151593920Y-63651149D01*
X151589574Y-63652778D01*
X151589575Y-63652778D01*
X151464615Y-63699622D01*
X151464612Y-63699624D01*
X151459676Y-63701474D01*
X151344954Y-63787454D01*
X151258974Y-63902176D01*
X151257124Y-63907112D01*
X151257122Y-63907115D01*
X151210278Y-64032074D01*
X151208649Y-64036420D01*
X151202000Y-64097623D01*
X148191483Y-64097623D01*
X148143367Y-64033188D01*
X148143366Y-64033187D01*
X148141335Y-64030467D01*
X148138844Y-64028164D01*
X148138841Y-64028161D01*
X147995304Y-63895477D01*
X147995300Y-63895474D01*
X147992812Y-63893174D01*
X147831943Y-63791673D01*
X147824618Y-63787051D01*
X147824617Y-63787050D01*
X147821757Y-63785246D01*
X147818614Y-63783992D01*
X147818612Y-63783991D01*
X147637052Y-63711556D01*
X147637049Y-63711555D01*
X147633898Y-63710298D01*
X147630571Y-63709636D01*
X147630567Y-63709635D01*
X147438849Y-63671500D01*
X147435526Y-63670839D01*
X147348249Y-63669697D01*
X147236680Y-63668236D01*
X147236675Y-63668236D01*
X147233286Y-63668192D01*
X147229941Y-63668767D01*
X147229938Y-63668767D01*
X147133618Y-63685318D01*
X147033949Y-63702444D01*
X146844193Y-63772449D01*
X146670371Y-63875862D01*
X146667827Y-63878093D01*
X146667823Y-63878096D01*
X146584710Y-63950985D01*
X146518305Y-64009220D01*
X146516208Y-64011879D01*
X146516207Y-64011881D01*
X146447030Y-64099633D01*
X146393089Y-64168057D01*
X146298914Y-64347053D01*
X146238937Y-64540213D01*
X146215164Y-64741069D01*
X145665000Y-64741069D01*
X145665000Y-62554000D01*
X145682313Y-62506434D01*
X145726150Y-62481124D01*
X145739000Y-62480000D01*
X160331000Y-62480000D01*
X160378566Y-62497313D01*
G37*
%TD.AperFunction*%
%TD*%
M02*
