%TF.GenerationSoftware,KiCad,Pcbnew,(6.0.1-0)*%
%TF.CreationDate,2022-02-21T21:03:00-07:00*%
%TF.ProjectId,LED,4c45442e-6b69-4636-9164-5f7063625858,rev?*%
%TF.SameCoordinates,Original*%
%TF.FileFunction,Copper,L2,Bot*%
%TF.FilePolarity,Positive*%
%FSLAX46Y46*%
G04 Gerber Fmt 4.6, Leading zero omitted, Abs format (unit mm)*
G04 Created by KiCad (PCBNEW (6.0.1-0)) date 2022-02-21 21:03:00*
%MOMM*%
%LPD*%
G01*
G04 APERTURE LIST*
%TA.AperFunction,ComponentPad*%
%ADD10R,1.700000X1.700000*%
%TD*%
%TA.AperFunction,ComponentPad*%
%ADD11O,1.700000X1.700000*%
%TD*%
G04 APERTURE END LIST*
D10*
%TO.P,JIN1,1*%
%TO.N,GND*%
X147320000Y-69850000D03*
D11*
%TO.P,JIN1,2*%
%TO.N,Net-(JIN1-Pad2)*%
X147320000Y-67310000D03*
%TO.P,JIN1,3*%
%TO.N,VCC*%
X147320000Y-64770000D03*
%TD*%
D10*
%TO.P,JOUT1,1*%
%TO.N,Net-(JOUT1-Pad1)*%
X158750000Y-66040000D03*
D11*
%TO.P,JOUT1,2*%
%TO.N,GND*%
X158750000Y-68580000D03*
%TD*%
%TA.AperFunction,Conductor*%
%TO.N,GND*%
G36*
X160378566Y-62497313D02*
G01*
X160403876Y-62541150D01*
X160405000Y-62554000D01*
X160405000Y-72066000D01*
X160387687Y-72113566D01*
X160343850Y-72138876D01*
X160331000Y-72140000D01*
X145739000Y-72140000D01*
X145691434Y-72122687D01*
X145666124Y-72078850D01*
X145665000Y-72066000D01*
X145665000Y-70746077D01*
X145962001Y-70746077D01*
X145962219Y-70750091D01*
X145968247Y-70805594D01*
X145970376Y-70814550D01*
X146017977Y-70941525D01*
X146022991Y-70950683D01*
X146103931Y-71058681D01*
X146111319Y-71066069D01*
X146219317Y-71147009D01*
X146228475Y-71152023D01*
X146355447Y-71199623D01*
X146364407Y-71201753D01*
X146419911Y-71207783D01*
X146423921Y-71208000D01*
X147052952Y-71208000D01*
X147062948Y-71204362D01*
X147066000Y-71199075D01*
X147066000Y-71194951D01*
X147574000Y-71194951D01*
X147577638Y-71204947D01*
X147582925Y-71207999D01*
X148216077Y-71207999D01*
X148220091Y-71207781D01*
X148275594Y-71201753D01*
X148284550Y-71199624D01*
X148411525Y-71152023D01*
X148420683Y-71147009D01*
X148528681Y-71066069D01*
X148536069Y-71058681D01*
X148617009Y-70950683D01*
X148622023Y-70941525D01*
X148669623Y-70814553D01*
X148671753Y-70805593D01*
X148677783Y-70750089D01*
X148678000Y-70746079D01*
X148678000Y-70117048D01*
X148674362Y-70107052D01*
X148669075Y-70104000D01*
X147587048Y-70104000D01*
X147577052Y-70107638D01*
X147574000Y-70112925D01*
X147574000Y-71194951D01*
X147066000Y-71194951D01*
X147066000Y-70117048D01*
X147062362Y-70107052D01*
X147057075Y-70104000D01*
X145975049Y-70104000D01*
X145965053Y-70107638D01*
X145962001Y-70112925D01*
X145962001Y-70746077D01*
X145665000Y-70746077D01*
X145665000Y-69582952D01*
X145962000Y-69582952D01*
X145965638Y-69592948D01*
X145970925Y-69596000D01*
X148664951Y-69596000D01*
X148674947Y-69592362D01*
X148677999Y-69587075D01*
X148677999Y-68953923D01*
X148677781Y-68949909D01*
X148671753Y-68894406D01*
X148669624Y-68885450D01*
X148652648Y-68840166D01*
X157416703Y-68840166D01*
X157416727Y-68841173D01*
X157449033Y-68984523D01*
X157450845Y-68990305D01*
X157532569Y-69191571D01*
X157535304Y-69196984D01*
X157648802Y-69382197D01*
X157652383Y-69387090D01*
X157794614Y-69551285D01*
X157798934Y-69555516D01*
X157966079Y-69694282D01*
X157971038Y-69697755D01*
X158158591Y-69807352D01*
X158164056Y-69809970D01*
X158366987Y-69887462D01*
X158372819Y-69889156D01*
X158483213Y-69911615D01*
X158493734Y-69910043D01*
X158495946Y-69907543D01*
X158496000Y-69907256D01*
X158496000Y-69903584D01*
X159004000Y-69903584D01*
X159007638Y-69913580D01*
X159011304Y-69915696D01*
X159030304Y-69913262D01*
X159036214Y-69912006D01*
X159244296Y-69849579D01*
X159249925Y-69847372D01*
X159445010Y-69751801D01*
X159450208Y-69748702D01*
X159627073Y-69622547D01*
X159631680Y-69618654D01*
X159785560Y-69465309D01*
X159789489Y-69460692D01*
X159916250Y-69284285D01*
X159919367Y-69279097D01*
X160015616Y-69084354D01*
X160017849Y-69078714D01*
X160080996Y-68870873D01*
X160082277Y-68864948D01*
X160084648Y-68846937D01*
X160082346Y-68836551D01*
X160079021Y-68834000D01*
X159017048Y-68834000D01*
X159007052Y-68837638D01*
X159004000Y-68842925D01*
X159004000Y-69903584D01*
X158496000Y-69903584D01*
X158496000Y-68847048D01*
X158492362Y-68837052D01*
X158487075Y-68834000D01*
X157428158Y-68834000D01*
X157418162Y-68837638D01*
X157416703Y-68840166D01*
X148652648Y-68840166D01*
X148622023Y-68758475D01*
X148617009Y-68749317D01*
X148536069Y-68641319D01*
X148528681Y-68633931D01*
X148420683Y-68552991D01*
X148411525Y-68547977D01*
X148284553Y-68500377D01*
X148275593Y-68498247D01*
X148220089Y-68492217D01*
X148216079Y-68492000D01*
X147710058Y-68492000D01*
X147662492Y-68474687D01*
X147637182Y-68430850D01*
X147645972Y-68381000D01*
X147686271Y-68347927D01*
X147766323Y-68320753D01*
X147769531Y-68319664D01*
X147772483Y-68318011D01*
X147772487Y-68318009D01*
X147774639Y-68316804D01*
X157413662Y-68316804D01*
X157415281Y-68323352D01*
X157418911Y-68326000D01*
X160073411Y-68326000D01*
X160083407Y-68322362D01*
X160084621Y-68320258D01*
X160084555Y-68318422D01*
X160040694Y-68143803D01*
X160038748Y-68138087D01*
X159952120Y-67938856D01*
X159949266Y-67933532D01*
X159831265Y-67751131D01*
X159827575Y-67746339D01*
X159681370Y-67585663D01*
X159676945Y-67581536D01*
X159506460Y-67446896D01*
X159501425Y-67443551D01*
X159311245Y-67338565D01*
X159305717Y-67336081D01*
X159159365Y-67284255D01*
X159120306Y-67252058D01*
X159111082Y-67202286D01*
X159136008Y-67158230D01*
X159184067Y-67140500D01*
X159624674Y-67140500D01*
X159628243Y-67139790D01*
X159628244Y-67139790D01*
X159690593Y-67127388D01*
X159690595Y-67127387D01*
X159697740Y-67125966D01*
X159703797Y-67121919D01*
X159703799Y-67121918D01*
X159774541Y-67074650D01*
X159780601Y-67070601D01*
X159835966Y-66987740D01*
X159850500Y-66914674D01*
X159850500Y-65165326D01*
X159845249Y-65138928D01*
X159837388Y-65099407D01*
X159837387Y-65099405D01*
X159835966Y-65092260D01*
X159780601Y-65009399D01*
X159761831Y-64996857D01*
X159703799Y-64958082D01*
X159703797Y-64958081D01*
X159697740Y-64954034D01*
X159690595Y-64952613D01*
X159690593Y-64952612D01*
X159628244Y-64940210D01*
X159628243Y-64940210D01*
X159624674Y-64939500D01*
X157875326Y-64939500D01*
X157871757Y-64940210D01*
X157871756Y-64940210D01*
X157809407Y-64952612D01*
X157809405Y-64952613D01*
X157802260Y-64954034D01*
X157796203Y-64958081D01*
X157796201Y-64958082D01*
X157738169Y-64996857D01*
X157719399Y-65009399D01*
X157664034Y-65092260D01*
X157662613Y-65099405D01*
X157662612Y-65099407D01*
X157654751Y-65138928D01*
X157649500Y-65165326D01*
X157649500Y-66914674D01*
X157664034Y-66987740D01*
X157719399Y-67070601D01*
X157725459Y-67074650D01*
X157796201Y-67121918D01*
X157796203Y-67121919D01*
X157802260Y-67125966D01*
X157809405Y-67127387D01*
X157809407Y-67127388D01*
X157871756Y-67139790D01*
X157871757Y-67139790D01*
X157875326Y-67140500D01*
X158318224Y-67140500D01*
X158365790Y-67157813D01*
X158391100Y-67201650D01*
X158382310Y-67251500D01*
X158341214Y-67284838D01*
X158224834Y-67322876D01*
X158219260Y-67325220D01*
X158026563Y-67425531D01*
X158021451Y-67428750D01*
X157847728Y-67559186D01*
X157843199Y-67563207D01*
X157693115Y-67720260D01*
X157689308Y-67724962D01*
X157566895Y-67904413D01*
X157563896Y-67909691D01*
X157472440Y-68106717D01*
X157470347Y-68112406D01*
X157413662Y-68316804D01*
X147774639Y-68316804D01*
X147943041Y-68222495D01*
X147943044Y-68222493D01*
X147946001Y-68220837D01*
X147948606Y-68218670D01*
X147948611Y-68218667D01*
X148098897Y-68093674D01*
X148101505Y-68091505D01*
X148228463Y-67938856D01*
X148228667Y-67938611D01*
X148228670Y-67938606D01*
X148230837Y-67936001D01*
X148232495Y-67933041D01*
X148328009Y-67762487D01*
X148328011Y-67762483D01*
X148329664Y-67759531D01*
X148394678Y-67568007D01*
X148423700Y-67367842D01*
X148425215Y-67310000D01*
X148406708Y-67108591D01*
X148405789Y-67105333D01*
X148405788Y-67105327D01*
X148352728Y-66917191D01*
X148352727Y-66917189D01*
X148351807Y-66913926D01*
X148262351Y-66732527D01*
X148244079Y-66708057D01*
X148143367Y-66573188D01*
X148143366Y-66573187D01*
X148141335Y-66570467D01*
X148138844Y-66568164D01*
X148138841Y-66568161D01*
X147995304Y-66435477D01*
X147995300Y-66435474D01*
X147992812Y-66433174D01*
X147821757Y-66325246D01*
X147818614Y-66323992D01*
X147818612Y-66323991D01*
X147637052Y-66251556D01*
X147637049Y-66251555D01*
X147633898Y-66250298D01*
X147630571Y-66249636D01*
X147630567Y-66249635D01*
X147438849Y-66211500D01*
X147435526Y-66210839D01*
X147348249Y-66209697D01*
X147236680Y-66208236D01*
X147236675Y-66208236D01*
X147233286Y-66208192D01*
X147229941Y-66208767D01*
X147229938Y-66208767D01*
X147133618Y-66225318D01*
X147033949Y-66242444D01*
X146844193Y-66312449D01*
X146670371Y-66415862D01*
X146667827Y-66418093D01*
X146667823Y-66418096D01*
X146652693Y-66431365D01*
X146518305Y-66549220D01*
X146393089Y-66708057D01*
X146298914Y-66887053D01*
X146238937Y-67080213D01*
X146215164Y-67281069D01*
X146228392Y-67482894D01*
X146278178Y-67678928D01*
X146362856Y-67862607D01*
X146364810Y-67865372D01*
X146364813Y-67865377D01*
X146416743Y-67938856D01*
X146479588Y-68027780D01*
X146624466Y-68168913D01*
X146627278Y-68170792D01*
X146627283Y-68170796D01*
X146778251Y-68271669D01*
X146792637Y-68281282D01*
X146795750Y-68282619D01*
X146795762Y-68282626D01*
X146952605Y-68350011D01*
X146989474Y-68384694D01*
X146995424Y-68434962D01*
X146967670Y-68477294D01*
X146923394Y-68492001D01*
X146423923Y-68492001D01*
X146419909Y-68492219D01*
X146364406Y-68498247D01*
X146355450Y-68500376D01*
X146228475Y-68547977D01*
X146219317Y-68552991D01*
X146111319Y-68633931D01*
X146103931Y-68641319D01*
X146022991Y-68749317D01*
X146017977Y-68758475D01*
X145970377Y-68885447D01*
X145968247Y-68894407D01*
X145962217Y-68949911D01*
X145962000Y-68953921D01*
X145962000Y-69582952D01*
X145665000Y-69582952D01*
X145665000Y-64741069D01*
X146215164Y-64741069D01*
X146228392Y-64942894D01*
X146278178Y-65138928D01*
X146362856Y-65322607D01*
X146364810Y-65325372D01*
X146364813Y-65325377D01*
X146477635Y-65485017D01*
X146479588Y-65487780D01*
X146624466Y-65628913D01*
X146627278Y-65630792D01*
X146627283Y-65630796D01*
X146778251Y-65731669D01*
X146792637Y-65741282D01*
X146795751Y-65742620D01*
X146795753Y-65742621D01*
X146884508Y-65780753D01*
X146978470Y-65821122D01*
X147077755Y-65843588D01*
X147172425Y-65865010D01*
X147172426Y-65865010D01*
X147175740Y-65865760D01*
X147271462Y-65869521D01*
X147374447Y-65873567D01*
X147374451Y-65873567D01*
X147377842Y-65873700D01*
X147511504Y-65854320D01*
X147574649Y-65845165D01*
X147574650Y-65845165D01*
X147578007Y-65844678D01*
X147769531Y-65779664D01*
X147772483Y-65778011D01*
X147772487Y-65778009D01*
X147943041Y-65682495D01*
X147943044Y-65682493D01*
X147946001Y-65680837D01*
X147948606Y-65678670D01*
X147948611Y-65678667D01*
X148098897Y-65553674D01*
X148101505Y-65551505D01*
X148156803Y-65485017D01*
X148228667Y-65398611D01*
X148228670Y-65398606D01*
X148230837Y-65396001D01*
X148270388Y-65325377D01*
X148328009Y-65222487D01*
X148328011Y-65222483D01*
X148329664Y-65219531D01*
X148394678Y-65028007D01*
X148397963Y-65005350D01*
X148423387Y-64830003D01*
X148423387Y-64829998D01*
X148423700Y-64827842D01*
X148425215Y-64770000D01*
X148406708Y-64568591D01*
X148405789Y-64565333D01*
X148405788Y-64565327D01*
X148352728Y-64377191D01*
X148352727Y-64377189D01*
X148351807Y-64373926D01*
X148262351Y-64192527D01*
X148244079Y-64168057D01*
X148143367Y-64033188D01*
X148143366Y-64033187D01*
X148141335Y-64030467D01*
X148138844Y-64028164D01*
X148138841Y-64028161D01*
X147995304Y-63895477D01*
X147995300Y-63895474D01*
X147992812Y-63893174D01*
X147821757Y-63785246D01*
X147818614Y-63783992D01*
X147818612Y-63783991D01*
X147637052Y-63711556D01*
X147637049Y-63711555D01*
X147633898Y-63710298D01*
X147630571Y-63709636D01*
X147630567Y-63709635D01*
X147438849Y-63671500D01*
X147435526Y-63670839D01*
X147348249Y-63669697D01*
X147236680Y-63668236D01*
X147236675Y-63668236D01*
X147233286Y-63668192D01*
X147229941Y-63668767D01*
X147229938Y-63668767D01*
X147133618Y-63685318D01*
X147033949Y-63702444D01*
X146844193Y-63772449D01*
X146670371Y-63875862D01*
X146667827Y-63878093D01*
X146667823Y-63878096D01*
X146652693Y-63891365D01*
X146518305Y-64009220D01*
X146393089Y-64168057D01*
X146298914Y-64347053D01*
X146238937Y-64540213D01*
X146215164Y-64741069D01*
X145665000Y-64741069D01*
X145665000Y-62554000D01*
X145682313Y-62506434D01*
X145726150Y-62481124D01*
X145739000Y-62480000D01*
X160331000Y-62480000D01*
X160378566Y-62497313D01*
G37*
%TD.AperFunction*%
%TD*%
M02*
